<svg id="Layer_2" data-name="Layer 2" xmlns="http://www.w3.org/2000/svg" viewBox="0 0 418.68 419.932">
  <title>personal logo</title>
  <path d="M238.2,299.174a149.681,149.681,0,0,0,28.433,2.453c.579-.012,1.213-.009,1.745-.034l1.806-.065c1.218-.031,2.393-.1,3.548-.187,1.159-.069,2.328-.15,3.5-.263,1.172-.089,2.34-.216,3.505-.358a124.634,124.634,0,0,0,13.848-2.438c4.57-1.067,9.1-2.373,13.643-3.756q3.4-1.046,6.814-2.166l3.417-1.118,1.713-.557,1.607-.552c4.374-1.551,8.74-3.328,13-5.248,4.272-1.9,8.457-3.975,12.509-6.22a125.389,125.389,0,0,0,11.667-7.3c1.849-1.312,3.642-2.68,5.343-4.116.866-.7,1.678-1.455,2.5-2.184a18.7,18.7,0,0,0,1.879-1.981,10.058,10.058,0,0,0,2.053-3.883,4.6,4.6,0,0,0,.1-.475l.037-.238.021-.118c-.005.041.028-.175-.009.077l.013-.112.052-.448c.011-.12,0-.124.005-.191l.011-.474a11.624,11.624,0,0,0-.244-2.264,12.038,12.038,0,0,0-1.758-4.261,8.975,8.975,0,0,0-2.92-2.794,7.752,7.752,0,0,0-1.732-.727l-.433-.126a1.08,1.08,0,0,0-.168-.027l-.132-.027-.232-.034a7.175,7.175,0,0,0-.926-.086,8.711,8.711,0,0,0-3.862.852,12.676,12.676,0,0,0-3.716,2.649,12.166,12.166,0,0,0-1.4,1.72c-.1.143-.179.285-.267.424l-.113.2-.029.05c.047-.089-.145.271.1-.188l-.1.2-.4.811a.825.825,0,0,0-.087.231l-.055.163-.065.159-.082.263-.177.547c-.086.4-.213.768-.28,1.2a21.988,21.988,0,0,0-.357,2.654,37.945,37.945,0,0,0,.118,5.987c.106,1.046.224,2.1.393,3.169l.571,3.475c.415,2.618.706,5.052.969,7.547.52,4.955.88,9.871,1.145,14.783.134,2.456.237,4.908.325,7.36l.1,3.676.065,3.6.314,14.438c.093,4.8.285,9.533.423,14.3.115,4.753.323,9.551.5,14.333l.259,7.179.312,7.183.606,14.373.68,14.38q.415,7.188.751,14.385l.809,14.389q.862,14.389,1.867,28.779c.652,9.595,1.5,19.173,2.308,28.757.425,4.789.848,9.58,1.35,14.361l.736,7.173.822,7.551-.027-.4,3.056,25.229c.975,8.44,1.854,16.94,2.083,25.54a114.705,114.705,0,0,1-1.927,25.854,95.855,95.855,0,0,1-3.413,12.605c-.71,2.058-1.474,4.1-2.323,6.1l-.632,1.508-.641,1.462-1.327,2.947a88.881,88.881,0,0,1-14.054,22.178,61.959,61.959,0,0,1-9.969,9.022,60.752,60.752,0,0,1-5.741,3.637c-1,.53-2,1.084-3.032,1.56l-.77.37-.193.092-.249.109-.364.159c-.5.214-.933.421-1.491.639a59.526,59.526,0,0,1-26.9,4.06,86.754,86.754,0,0,1-26.112-6.35,124.3,124.3,0,0,1-23.412-12.643c-1.843-1.269-3.641-2.555-5.468-4.012l-2.543-2.124c-.832-.714-1.727-1.543-2.586-2.313a103.418,103.418,0,0,1-9.329-9.865,107.673,107.673,0,0,1-7.979-10.966,109.894,109.894,0,0,1-6.482-11.927,106.043,106.043,0,0,1-8.288-25.93,96.384,96.384,0,0,1-1-27.52c.1-1.156.285-2.3.451-3.456.15-1.153.372-2.3.589-3.443.2-1.148.461-2.286.728-3.423l.2-.854.1-.427.05-.213.076-.284.409-1.543.523-1.791.548-1.712c.384-1.133.78-2.268,1.228-3.386a65.493,65.493,0,0,1,2.99-6.573,90.663,90.663,0,0,1,16.874-22.155,186.434,186.434,0,0,1,20.307-17.2c7.03-5.225,14.242-10.056,21.559-14.647,3.664-2.29,7.36-4.5,11.069-6.682l1.39-.82,1.477-.837,2.761-1.563,5.522-3.127a507.228,507.228,0,0,1,46.448-22.654c15.816-6.781,32.03-12.565,48.321-17.845q12.245-3.856,24.522-7.378c8.156-2.35,16.352-4.586,24.321-6.937,4.064-1.21,8.119-2.413,12.07-3.646,3.98-1.2,7.964-2.515,11.949-3.8s7.935-2.686,11.907-4.024l11.833-4.256c15.735-5.8,31.343-12.028,46.711-18.853,3.838-1.714,7.7-3.377,11.527-5.133l11.45-5.322,11.366-5.518c3.787-1.847,7.537-3.771,11.311-5.654,3.788-1.86,7.484-3.887,11.23-5.833l5.617-2.926,5.566-3.022c7.454-3.982,14.792-8.176,22.2-12.281l.922,1.429c-6.9,4.922-13.809,9.869-20.906,14.53l-5.293,3.548-5.359,3.446c-3.6,2.259-7.148,4.6-10.8,6.781-14.441,8.989-29.32,17.283-44.427,25.178-15.168,7.77-30.584,15.119-46.314,21.783l-11.849,4.881c-3.982,1.547-7.944,3.153-11.947,4.653s-7.991,3.021-12.055,4.45c-2.018.716-4.058,1.47-6.061,2.156l-6.013,2.033c-16.3,5.416-32.318,10.255-48.114,15.815q-23.692,8.222-46.548,18.247c-15.2,6.753-30.16,14.11-44.653,22.09l-5.546,3.084-2.773,1.542-1.289.716-1.349.782c-3.6,2.079-7.183,4.185-10.71,6.353-7.08,4.3-14.037,8.745-20.676,13.5a169.479,169.479,0,0,0-18.706,15.218,76.217,76.217,0,0,0-14.232,17.711,49,49,0,0,0-2.384,4.916c-.362.836-.681,1.693-1,2.555l-.452,1.3-.4,1.245-.441,1.514-.337,1.3c-.239.917-.479,1.834-.659,2.768-.2.929-.407,1.856-.549,2.8-.158.939-.335,1.876-.439,2.826a80.729,80.729,0,0,0,.3,23.054,92.134,92.134,0,0,0,6.45,22.507,95.515,95.515,0,0,0,5.306,10.533,94.147,94.147,0,0,0,6.506,9.856,90.238,90.238,0,0,0,7.7,8.931c.689.672,1.31,1.319,2.051,2.019l2.236,2.051c1.423,1.254,2.988,2.538,4.565,3.758A112.768,112.768,0,0,0,277.3,636.313a76.668,76.668,0,0,0,22.669,6.948,53.954,53.954,0,0,0,11.69.264A48.188,48.188,0,0,0,323,641.136a50.261,50.261,0,0,0,19.752-12.771,67.807,67.807,0,0,0,7.616-9.4,96.1,96.1,0,0,0,6.141-10.653c.464-.924.915-1.861,1.356-2.8l.667-1.429.628-1.4c.849-1.874,1.614-3.781,2.33-5.705a81.7,81.7,0,0,0,3.432-11.815,92.8,92.8,0,0,0,1.763-12.214c.3-4.119.373-8.268.273-12.427a242.324,242.324,0,0,0-2.224-25.024c-1.114-8.351-2.4-16.711-3.687-25.088l-.027-.4-.121-.625-.118-.775-.262-1.791-.528-3.58-1.05-7.158-2.087-14.317-4.027-28.661q-1.994-14.338-3.811-28.707c-1.2-9.581-2.385-19.169-3.4-28.778-.968-9.614-2.018-19.226-2.772-28.87-.415-4.817-.8-9.641-1.09-14.473s-.678-9.646-.873-14.516c-.207-4.851-.469-9.736-.629-14.56l-.33-14.438-.137-7.167c-.057-2.36-.128-4.718-.229-7.07-.2-4.7-.488-9.4-.918-14.023-.214-2.294-.476-4.644-.76-6.789l-.527-3.662c-.181-1.312-.311-2.654-.422-4a52.354,52.354,0,0,1,.012-8.438,36.435,36.435,0,0,1,.694-4.485c.146-.754.389-1.537.595-2.3l.394-1.166.21-.591.279-.676.289-.671c.088-.2.219-.506.273-.6l.411-.8.1-.2a4.153,4.153,0,0,1,.208-.384l.084-.145.342-.576c.235-.369.471-.741.719-1.088a25.336,25.336,0,0,1,3.25-3.786,26.836,26.836,0,0,1,8.179-5.395,22.713,22.713,0,0,1,10.207-1.773,21.094,21.094,0,0,1,2.656.341l.655.131.745.187.707.194.43.139a21.478,21.478,0,0,1,4.832,2.236,22.183,22.183,0,0,1,7.188,7.339,25.377,25.377,0,0,1,3.354,9.149,24.664,24.664,0,0,1,.3,4.924c-.029.445-.038.8-.1,1.327l-.081.708-.069.446-.068.41-.065.325-.136.648c-.083.435-.22.852-.336,1.276a22.8,22.8,0,0,1-4.918,8.63,31.509,31.509,0,0,1-3.233,3.11c-1.015.824-2.015,1.66-3.053,2.429-2.055,1.576-4.165,3.035-6.307,4.411a122.369,122.369,0,0,1-13.2,7.365,173.08,173.08,0,0,1-27.812,10.582l-1.845.5-1.754.45-3.52.884q-3.526.878-7.1,1.708c-4.757,1.105-9.585,2.092-14.48,2.793a131.5,131.5,0,0,1-14.77,1.341c-1.234.046-2.468.077-3.7.067-1.23.009-2.466.011-3.714-.047-1.252-.035-2.483-.085-3.672-.174l-1.8-.115c-.671-.038-1.239-.1-1.863-.149a130.647,130.647,0,0,1-28.65-5.7Z" transform="translate(-205.291 -232.915)"/>
  <path d="M376.036,507.784s.086-.27.276-.724c.2-.435.463-1.137.875-1.907a33.517,33.517,0,0,1,3.82-5.8,39.488,39.488,0,0,1,6.6-6.4c.708-.532,1.314-.976,2-1.457.689-.463,1.434-.937,2.176-1.382a48.775,48.775,0,0,1,4.592-2.409,44.4,44.4,0,0,1,9.72-3.144,39.226,39.226,0,0,1,9.165-.74,37.014,37.014,0,0,1,3.842.36,30.584,30.584,0,0,1,3.044.609c.85.2,1.552.471,2.013.607.468.156.727.271.727.271s-.139.249-.417.656c-.284.389-.678,1.022-1.218,1.7a43.841,43.841,0,0,1-4.584,5.043,51.315,51.315,0,0,1-6.879,5.482,58.333,58.333,0,0,1-8.4,4.642c-1.478.666-2.992,1.274-4.5,1.815-.746.274-1.482.5-2.249.753s-1.6.5-2.3.665a52.063,52.063,0,0,1-8.659,1.551,44.544,44.544,0,0,1-6.807.131c-.862-.038-1.6-.162-2.077-.2C376.313,507.843,376.036,507.784,376.036,507.784Z" transform="translate(-205.291 -232.915)"/>
</svg>
